<?xml version="1.0" ?><svg id="Icons" viewBox="0 0 48 48" xmlns="http://www.w3.org/2000/svg"><defs><style>.cls-1{fill:#00dba8;}.cls-2{fill:#00ad85;}.cls-3,.cls-5{fill:none;stroke:#45413c;stroke-linecap:round;}.cls-3{stroke-miterlimit:10;}.cls-4{fill:#45413c;opacity:0.15;}.cls-5{stroke-linejoin:round;}.cls-6{fill:#bf8df2;}.cls-7{fill:#dabff5;}.cls-8{fill:#00f5bc;}</style></defs><title/><g data-name="&lt;Group&gt;" id="_Group_"><path class="cls-1" d="M44,19c0,11.05-13.5,22.5-20,22.5S4,30.05,4,19,13,1.5,24,1.5,44,8,44,19Z" data-name="&lt;Path&gt;" id="_Path_"/><path class="cls-2" d="M24,38.39c-6.22,0-18.82-10.47-19.91-21C4,17.89,4,18.43,4,19,4,30.05,17.5,41.5,24,41.5S44,30.05,44,19c0-.57,0-1.11-.08-1.65C42.82,27.92,30.22,38.39,24,38.39Z" data-name="&lt;Path&gt;" id="_Path_2"/><path class="cls-3" d="M29,30a9,9,0,0,1-10,0" data-name="&lt;Path&gt;" id="_Path_3"/><ellipse class="cls-4" cx="24" cy="45.5" data-name="&lt;Ellipse&gt;" id="_Ellipse_" rx="16" ry="1.5"/><path class="cls-5" d="M44,19c0,11.05-13.5,22.5-20,22.5S4,30.05,4,19,13,1.5,24,1.5,44,8,44,19Z" data-name="&lt;Path&gt;" id="_Path_4"/><g data-name="&lt;Group&gt;" id="_Group_2"><path class="cls-6" d="M10.88,12.41c-2.37,1.81-2.44,5.7-.17,8.69s6.28,3.45,9,3.06a8.78,8.78,0,0,0-.41-9.61C17,11.56,13.26,10.61,10.88,12.41Z" data-name="&lt;Path&gt;" id="_Path_5"/><path class="cls-7" d="M19.3,14.55c-2.27-3-6-3.94-8.42-2.14a5.3,5.3,0,0,0-1.67,5.44,4.64,4.64,0,0,1,1.67-2.71c2.38-1.81,6.15-.85,8.42,2.13A8.24,8.24,0,0,1,20.85,21,8.71,8.71,0,0,0,19.3,14.55Z"/><path class="cls-5" d="M10.88,12.41c-2.37,1.81-2.44,5.7-.17,8.69s6.28,3.45,9,3.06a8.78,8.78,0,0,0-.41-9.61C17,11.56,13.26,10.61,10.88,12.41Z" data-name="&lt;Path&gt;" id="_Path_6"/></g><g data-name="&lt;Group&gt;" id="_Group_3"><path class="cls-6" d="M37.12,12.41c2.37,1.81,2.44,5.7.17,8.69s-6.28,3.45-9,3.06a8.78,8.78,0,0,1,.41-9.61C31,11.56,34.74,10.61,37.12,12.41Z" data-name="&lt;Path&gt;" id="_Path_7"/><path class="cls-7" d="M28.7,14.55c2.27-3,6-3.94,8.42-2.14a5.3,5.3,0,0,1,1.67,5.44,4.64,4.64,0,0,0-1.67-2.71c-2.38-1.81-6.15-.85-8.42,2.13A8.24,8.24,0,0,0,27.15,21,8.71,8.71,0,0,1,28.7,14.55Z"/><path class="cls-5" d="M37.12,12.41c2.37,1.81,2.44,5.7.17,8.69s-6.28,3.45-9,3.06a8.78,8.78,0,0,1,.41-9.61C31,11.56,34.74,10.61,37.12,12.41Z" data-name="&lt;Path&gt;" id="_Path_8"/></g><line class="cls-5" data-name="&lt;Line&gt;" id="_Line_" x1="25.5" x2="25.5" y1="26" y2="27.5"/><line class="cls-5" data-name="&lt;Line&gt;" id="_Line_2" x1="22.5" x2="22.5" y1="26" y2="27.5"/><ellipse class="cls-2" cx="13.31" cy="28.17" data-name="&lt;Ellipse&gt;" id="_Ellipse_2" rx="2.5" ry="1.5"/><ellipse class="cls-2" cx="34.69" cy="28.17" data-name="&lt;Ellipse&gt;" id="_Ellipse_3" rx="2.5" ry="1.5"/><ellipse class="cls-8" cx="24.04" cy="5.39" data-name="&lt;Ellipse&gt;" id="_Ellipse_4" rx="6" ry="1.5"/></g></svg>