<?xml version="1.0" ?><svg id="ART" viewBox="0 0 150 150" xmlns="http://www.w3.org/2000/svg"><defs><style>.cls-1{fill:#40586a;}.cls-2{fill:#d3dae0;stroke-width:4px;}.cls-2,.cls-3,.cls-5,.cls-6,.cls-7{stroke:#000;}.cls-2,.cls-3,.cls-7{stroke-miterlimit:10;}.cls-3,.cls-6{fill:none;}.cls-4{fill:#8095a0;}.cls-5{fill:#001723;}.cls-5,.cls-6{stroke-linecap:round;stroke-linejoin:round;}.cls-5,.cls-7{stroke-width:2px;}.cls-6{stroke-width:3px;}.cls-7{fill:#e8e6ac;}</style></defs><title/><path class="cls-1" d="M123.41,84.14A102.23,102.23,0,0,1,122,72.33L121.9,70c-.46-8-1.31-22.8-2.83-36-2.51-21.74-5.23-24.61-5.75-25-2.11.18-7.21,5.86-13.52,26.22l-.12.39c-.07.21-.13.43-.19.66-1.38,5-4.4,9.86-24.39,9.9h-.21c-20,0-23-4.91-24.38-9.9-.06-.23-.12-.45-.19-.66l-.12-.39C43.89,14.87,38.79,9.19,36.68,9c-.52.35-3.24,3.22-5.75,25-1.52,13.21-2.37,28-2.83,36L28,72.33a102.23,102.23,0,0,1-1.38,11.81c-.81,4.86-1.44,8.69-.54,18.5,1.31,14.28,42.09,38,49,38.35,6.86-.39,47.64-24.07,49-38.35C124.85,92.83,124.22,89,123.41,84.14Zm-15.68,22.58c-8.35,2.52-17.5,29.53-32.49,29.7-15-.17-24.13-27.18-32.48-29.7C36.94,105,31,102.12,31.23,98.34c.52-11.44,3.12-33.08,5.28-34.19,16.45-8.48,31-3.61,35,45.81H79c4-49.42,18.51-54.29,35-45.81,2.15,1.11,4.76,22.75,5.28,34.19C119.43,102.12,113.55,105,107.73,106.72Z"/><path class="cls-2" d="M125.94,102.82c-1.45,15.8-44,39.94-50.94,40.18-6.92-.24-49.5-24.38-50.94-40.18-1.48-16.1,1.09-16.59,1.92-30.6S29.36,7,36.57,7,51.2,31.73,52.23,35s1,9.11,22.67,9.15h.21c21.64,0,21.64-5.86,22.67-9.15s8.45-28,15.66-28S123.2,58.2,124,72.22,127.42,86.71,125.94,102.82Z" data-name="&lt;Path&gt;" id="_Path_"/><path class="cls-1" d="M123.41,84.14A102.23,102.23,0,0,1,122,72.33L121.9,70c-.46-8-1.31-22.8-2.83-36-2.51-21.74-5.23-24.61-5.75-25-2.11.18-7.21,5.86-13.52,26.22l-.12.39c-.07.21-.13.43-.19.66-1.38,5-4.4,9.86-24.39,9.9h-.21c-20,0-23-4.91-24.38-9.9-.06-.23-.12-.45-.19-.66l-.12-.39C43.89,14.87,38.79,9.19,36.68,9c-.52.35-3.24,3.22-5.75,25-1.52,13.21-2.37,28-2.83,36L28,72.33a102.23,102.23,0,0,1-1.38,11.81c-.81,4.86-1.44,8.69-.54,18.5,1.31,14.28,42.09,38,49,38.35,6.86-.39,47.64-24.07,49-38.35C124.85,92.83,124.22,89,123.41,84.14Zm-15.68,22.58c-8.35,2.52-17.5,29.53-32.49,29.7-15-.17-24.13-27.18-32.48-29.7C36.94,105,31,102.12,31.23,98.34c.52-11.44,3.12-33.08,5.28-34.19,16.45-8.48,31-3.61,35,45.81H79c4-49.42,18.51-54.29,35-45.81,2.15,1.11,4.76,22.75,5.28,34.19C119.43,102.12,113.55,105,107.73,106.72Z"/><path class="cls-3" d="M75,143h-.1"/><path class="cls-3" d="M75.1,143H75"/><path class="cls-4" d="M43.45,46c10.39-3-2.35-28.34-4.72-32.15C34.3,20.67,28,50.55,43.45,46Z"/><path class="cls-4" d="M106.36,46c-10.39-3,2.76-28.34,5.13-32.15C115.92,20.67,121.84,50.55,106.36,46Z"/><path class="cls-5" d="M85.41,111.33c0,4.32-6.76,9.83-10.41,9.83s-10.41-5.51-10.41-9.83S69.25,105.5,75,105.5,85.41,107,85.41,111.33Z"/><line class="cls-6" x1="75" x2="75" y1="127.48" y2="121.64"/><path class="cls-6" d="M83,125.46c0,2.43-3.59,3.4-8,3.4s-8-1-8-3.4"/><path class="cls-7" d="M100.48,71.35c1.27,3.71-2.21,10.82-5.92,12.09a7.09,7.09,0,0,1-9-4.41c-.73-2.14,1.87-5.44,3.87-6.88C93.28,69.37,99.2,67.64,100.48,71.35Z"/><circle cx="91.81" cy="74.99" r="3.15"/><path class="cls-7" d="M49.52,71.35c-1.27,3.71,2.21,10.82,5.92,12.09a7.09,7.09,0,0,0,9-4.41c.73-2.14-1.87-5.44-3.87-6.88C56.72,69.37,50.8,67.64,49.52,71.35Z"/><circle cx="58.19" cy="74.99" r="3.15"/></svg>