<?xml version="1.0" ?><svg enable-background="new 0 0 24 24" id="Layer_1" version="1.1" viewBox="0 0 24 24" xml:space="preserve" xmlns="http://www.w3.org/2000/svg" xmlns:xlink="http://www.w3.org/1999/xlink"><g><path d="M24,10.5C24,3.0849609,12.4897461,3,12,3S0,3.0849609,0,10.5   c0,0.1269531,0.0229492,2.96875,1.9135742,4.2363281c-0.246582,1.0390625-0.1181641,2.1191406,0.3730469,3.0810547   c0.5576172,1.0927734,1.5117188,1.8984375,2.6870117,2.2685547C6.8969727,20.6923828,9.2607422,21,12,21   s5.1030273-0.3076172,7.0263672-0.9140625c1.175293-0.3701172,2.1293945-1.1757812,2.6870117-2.2685547   c0.4912109-0.9619141,0.6196289-2.0419922,0.3730469-3.0810547C23.9770508,13.46875,24,10.6269531,24,10.5z" fill="#303C42"/><path d="M20.8227539,17.3632812c-0.4345703,0.8515625-1.1796875,1.4804688-2.097168,1.7695312   C16.8999023,19.7080078,14.637207,20,12,20s-4.8999023-0.2919922-6.7255859-0.8671875   c-0.9174805-0.2890625-1.6625977-0.9179688-2.097168-1.7695312c-0.3618774-0.7089233-0.4546509-1.4975586-0.3030396-2.2655029   C4.1127319,15.362793,7.5507812,16,12,16s7.8872681-0.637207,9.1257935-0.9022217   C21.2774048,15.8657227,21.1846313,16.6543579,20.8227539,17.3632812z" fill="#D32F2F"/><path d="M21.1257935,15.0977783c-0.1030273,0.0220337-0.2433472,0.0498047-0.3760986,0.076416   c-0.059021,0.201416-0.1334839,0.3995972-0.2313232,0.5913086c-0.4345703,0.8515625-1.1796875,1.4804688-2.097168,1.7695312   c-1.8256836,0.5751953-4.0883789,0.8671875-6.7255859,0.8671875s-4.8999023-0.2919922-6.7255859-0.8671875   c-0.9174805-0.2890625-1.6625977-0.9179688-2.097168-1.7695312c-0.024353-0.0476685-0.0375977-0.0982056-0.0595093-0.1465454   c-0.031189,0.5981445,0.0835571,1.1951294,0.3638916,1.7443237c0.4345703,0.8515625,1.1796875,1.4804688,2.097168,1.7695312   C7.1000977,19.7080078,9.362793,20,12,20s4.8999023-0.2919922,6.7255859-0.8671875   c0.9174805-0.2890625,1.6625977-0.9179688,2.097168-1.7695312C21.1846313,16.6543579,21.2774048,15.8657227,21.1257935,15.0977783z   " opacity="0.1"/><path d="M7.5,12c0-2.2060547,2.0185547-4,4.5-4s4.5,1.7939453,4.5,4   c0,1.0966797-0.5199585,2.1390381-1.4137573,2.8935547C14.1289673,14.9581909,13.0960693,15,12,15   c-1.0957031,0-2.1287842-0.0419312-3.0866089-0.1066895C8.0199585,14.138855,7.5,13.0970459,7.5,12z" fill="#FFFFFF"/><path d="M21.3141479,14.0300903c-0.3461914,0.0814819-2.1237183,0.480896-4.7452393,0.741272   C17.1659546,13.9575195,17.5,12.9977417,17.5,12c0-2.7568359-2.4672852-5-5.5-5s-5.5,2.2431641-5.5,5   c0,0.9978638,0.3339844,1.9573364,0.930603,2.7709351c-2.6189575-0.260437-4.3981323-0.6594238-4.7446899-0.7408447   C1.0299072,13.1607056,1,10.5261841,1,10.5C1,4.0820312,11.8901367,4,12,4s11,0.0820312,11,6.5   C23,10.5270996,22.9786987,13.1571045,21.3141479,14.0300903z" fill="#D32F2F"/><path d="M2,11.7286377c0-6.4179688,10.8901367-6.5,11-6.5   c0.0830078,0,6.3141479,0.0488281,9.359375,2.8375854C20.02948,4.0631104,12.09375,4,12,4C11.8901367,4,1,4.0820312,1,10.5   c0,0.0250854,0.0314941,2.4403076,1.4902954,3.4076538C2.0159912,12.8814087,2,11.7457886,2,11.7286377z" fill="#FFFFFF" opacity="0.2"/><path d="M12.4287109,12.2568359l0.8789062-1.4648438l0.7075195,2.8291016   C14.0717773,13.8486328,14.2753906,14,14.4995117,14c0.0400391,0,0.0810547-0.0048828,0.121582-0.0146484   c0.2680664-0.0673828,0.4311523-0.3388672,0.3637695-0.6064453l-1-4c-0.0488281-0.1962891-0.2114258-0.34375-0.4111328-0.3730469   c-0.2011719-0.0292969-0.3979492,0.0634766-0.5024414,0.2373047L12,11.0283203l-1.0712891-1.7851562   c-0.1040039-0.1738281-0.2998047-0.2666016-0.5024414-0.2373047c-0.199707,0.0292969-0.3623047,0.1767578-0.4111328,0.3730469l-1,4   c-0.0673828,0.2675781,0.0957031,0.5390625,0.3637695,0.6064453c0.2661133,0.0634766,0.5385742-0.0957031,0.605957-0.3642578   l0.7075195-2.8291016l0.8789062,1.4648438C11.7519531,12.5595703,12.2480469,12.5595703,12.4287109,12.2568359z" fill="#303C42"/><linearGradient gradientUnits="userSpaceOnUse" id="SVGID_1_" x1="0.965073" x2="22.1384487" y1="7.039535" y2="16.9128418"><stop offset="0" style="stop-color:#FFFFFF;stop-opacity:0.2"/><stop offset="1" style="stop-color:#FFFFFF;stop-opacity:0"/></linearGradient><path d="M24,10.5C24,3.0849609,12.4897461,3,12,3S0,3.0849609,0,10.5   c0,0.1269531,0.0229492,2.96875,1.9135742,4.2363281c-0.246582,1.0390625-0.1181641,2.1191406,0.3730469,3.0810547   c0.5576172,1.0927734,1.5117188,1.8984375,2.6870117,2.2685547C6.8969727,20.6923828,9.2607422,21,12,21   s5.1030273-0.3076172,7.0263672-0.9140625c1.175293-0.3701172,2.1293945-1.1757812,2.6870117-2.2685547   c0.4912109-0.9619141,0.6196289-2.0419922,0.3730469-3.0810547C23.9770508,13.46875,24,10.6269531,24,10.5z" fill="url(#SVGID_1_)"/></g><g/><g/><g/><g/><g/><g/><g/><g/><g/><g/><g/><g/><g/><g/><g/></svg>