<?xml version="1.0" ?><svg baseProfile="tiny" id="Layer_1" version="1.2" viewBox="0 0 512 512" xml:space="preserve" xmlns="http://www.w3.org/2000/svg" xmlns:xlink="http://www.w3.org/1999/xlink"><g id="XMLID_105_"><g id="XMLID_124_"><path d="M268.9,412.4h-25.7c-21.9,0-39.6-17.7-39.6-39.6v-57.3c0-21.9,17.7-39.6,39.6-39.6h25.7    c21.9,0,39.6,17.7,39.6,39.6v57.3C308.4,394.6,290.7,412.4,268.9,412.4z" fill="#EDBB98" id="XMLID_126_"/><path d="M308.4,371.9v0.9c0,21.9-17.7,39.6-39.6,39.6h-25.7c-21.9,0-39.6-17.7-39.6-39.6v-0.9    C121.1,389.7,57,444.6,39.8,511.6c-0.2,1,109.2,0,216.2,0c107.1,0,216.5,1,216.2,0C455,444.6,390.9,389.7,308.4,371.9z" fill="#2B00FF" id="XMLID_125_"/></g><ellipse cx="389.8" cy="205.1" fill="#F4C5A2" id="XMLID_123_" rx="30.2" ry="41.8" transform="matrix(0.9772 0.2124 -0.2124 0.9772 52.4566 -78.1282)"/><ellipse cx="122.2" cy="207.8" fill="#F4C5A2" id="XMLID_122_" rx="30.2" ry="41.8" transform="matrix(-0.9772 0.2124 -0.2124 -0.9772 285.6545 384.8752)"/><ellipse cx="256.3" cy="202.5" fill="#F4C5A2" id="XMLID_121_" rx="129.9" ry="151.6"/><g id="XMLID_110_"><g id="XMLID_116_"><path d="M280.9,163.3c3-5.3,7.7-9.3,13-12.2c5.3-2.9,11.4-4.6,17.7-4.8c3.1-0.2,6.3,0.3,9.4,0.9     c3,0.9,6,1.8,8.7,3.4c2.8,1.4,5.1,3.4,7.3,5.5c1.1,1,2,2.3,2.9,3.5c0.9,1.2,1.7,2.5,2.4,3.8c-3.1-0.6-5.6-1.7-8.3-2.4     c-2.7-0.6-5.1-1.5-7.6-1.8c-2.4-0.6-4.9-0.7-7.3-1.1c-2.4,0-4.8-0.4-7.2-0.2c-4.8,0.1-9.7,0.7-14.8,1.7     C291.9,160.5,286.7,161.8,280.9,163.3z" fill="#333333" id="XMLID_120_"/><g id="XMLID_117_"><circle cx="311.6" cy="186.8" fill="#333333" id="XMLID_119_" r="15.6"/><circle cx="314.2" cy="175.4" fill="#F2F2F2" id="XMLID_118_" r="3.9"/></g></g><g id="XMLID_111_"><path d="M170.3,163.3c3-5.3,7.7-9.3,13-12.2c5.3-2.9,11.4-4.6,17.7-4.8c3.1-0.2,6.3,0.3,9.4,0.9     c3,0.9,6,1.8,8.7,3.4c2.8,1.4,5.1,3.4,7.3,5.5c1.1,1,2,2.3,2.9,3.5c0.9,1.2,1.7,2.5,2.4,3.8c-3.1-0.6-5.6-1.7-8.3-2.4     c-2.7-0.6-5.1-1.5-7.6-1.8c-2.4-0.6-4.9-0.7-7.3-1.1c-2.4,0-4.8-0.4-7.2-0.2c-4.8,0.1-9.7,0.7-14.8,1.7     C181.4,160.5,176.2,161.8,170.3,163.3z" fill="#333333" id="XMLID_115_"/><g id="XMLID_112_"><circle cx="201.1" cy="186.8" fill="#333333" id="XMLID_114_" r="15.6"/><circle cx="203.6" cy="175.4" fill="#F2F2F2" id="XMLID_113_" r="3.9"/></g></g></g><path d="M234.4,238.6c4.2,1.1,7.9,2.1,11.5,2.8c3.6,0.7,7.1,1.1,10.5,1.1c3.4,0,6.9-0.2,10.4-1   c1.8-0.2,3.6-0.9,5.5-1.3c1.9-0.4,3.8-1.2,6-1.6c-1,1.9-2.3,3.7-3.8,5.2c-1.6,1.4-3.2,3-5.2,4c-3.8,2.3-8.4,3.4-13,3.3   c-4.5,0-9-1.3-12.8-3.4C239.7,245.5,236.4,242.5,234.4,238.6z" fill="#F4A56E" id="XMLID_109_"/><path d="M394.2,100.2c-1.2-12.6-4.8-32.9-9.9-44.7C369,19.8,314.3,4.4,277.5,0.9   c-68.1-5.1-91.8,11.7-99.5,25.7l0,0c0,0-84.4,10.8-68.6,119.1l18.3,67c0,0,33-90.4,76.1-113l-9.4-20.3c3.2,4.2,6.5,8.3,9.9,12.3   c1.9,2.2,3.8,4.4,5.7,6.5c10.3,11.5,22.1,22.4,37.7,27.6c15.7,5.2,33.3,4,49.2,0.1c14.5-3.6,31.2-15.6,46.5-13.1   c11.1,1.8,18.3,11.5,23,20.8c12.4,24.7,16.2,52.1,19.9,79.1C391.9,174.8,397.7,138.2,394.2,100.2z" fill="#3F2820" id="XMLID_108_"/><path d="M310.3,313.5c-21.6,14.4-40.9-23.9-40.9-23.9h-25.9c0,0-19.3,38.3-40.9,23.9l-65.3-50.1   c0,0,24.6,83.4,114,90.7h10.2c89.5-7.3,113.4-89.6,113.4-89.6L310.3,313.5z" fill="#3F2820" id="XMLID_107_"/><path d="M208.9,272.2c7.8,3.4,15.6,5.9,23.5,7.6c7.9,1.6,15.8,2.6,23.8,2.4c2,0.1,4-0.2,5.9-0.3   c2-0.1,4-0.2,5.9-0.5c2-0.3,4-0.6,6-0.8l5.9-1.3l3-0.6c1-0.2,1.9-0.6,2.9-0.9l5.9-1.7c4-1.2,7.8-2.8,12-3.9   c-3.2,2.8-6.6,5.5-10.2,7.8c-3.8,2-7.5,4.4-11.6,5.8c-2,0.8-4.1,1.6-6.2,2.2c-2.1,0.5-4.3,1-6.4,1.5c-2.1,0.6-4.3,0.7-6.5,1   c-2.2,0.2-4.4,0.5-6.6,0.4c-8.8,0.2-17.7-1.5-25.8-4.6C222.4,283.2,214.7,278.6,208.9,272.2z" fill="#F4A56E" id="XMLID_106_"/></g></svg>