<?xml version="1.0" ?><svg id="Layer_1" style="enable-background:new 0 0 30 30;" version="1.1" viewBox="0 0 30 30" xml:space="preserve" xmlns="http://www.w3.org/2000/svg" xmlns:xlink="http://www.w3.org/1999/xlink"><style type="text/css">
	.st0{fill:#B3B3B3;}
</style><g><path class="st0" d="M17.295,15.331c0,0,3.281-4.5,11.063,0c0.031,0.094,2,6.681-5.531,6.7   C22.827,22.031,17.452,20.487,17.295,15.331z"/><path class="st0" d="M2.92,14.362c0,0,7.813-2.438,10.781,1.969c0,0.063-1.719,7.344-8.781,5.031   C4.952,21.393,0.077,18.831,2.92,14.362z"/><g><path d="M28.817,15.572c0-0.001,0-0.001,0-0.001l-1.358-7.438c-0.028-0.156-0.146-0.281-0.302-0.317s-0.316,0.022-0.411,0.148    L25.234,9.97c-0.133,0.176-0.098,0.427,0.078,0.56c0.177,0.131,0.428,0.098,0.561-0.079l0.964-1.278l0.912,5    c-1.045-0.693-2.622-0.897-4.148-1.015c-3.208-0.247-5.291,0.216-6.233,1.362c-1.346-0.63-2.991-0.549-4.264,0.215    c-1.008-0.854-2.798-1.379-5.368-1.556c-1.733-0.121-3.545-0.138-4.682,0.651l0.864-5.776C3.941,7.899,3.87,7.743,3.735,7.659    C3.6,7.574,3.429,7.577,3.297,7.666l-2.079,1.41C1.036,9.2,0.988,9.449,1.112,9.632c0.123,0.181,0.372,0.23,0.556,0.106    L2.991,8.84l-0.983,6.575c0,0.001,0,0.002,0,0.003c-0.042,0.181-0.076,0.372-0.092,0.581c-0.233,2.903,0.816,4.851,3.209,5.954    c0.637,0.294,1.293,0.423,1.948,0.423c2.047,0,4.088-1.257,5.52-2.687c0.972-0.972,1.828-2.495,1.317-3.86    c-0.064-0.171-0.154-0.332-0.256-0.487c1.008-0.545,2.264-0.593,3.313-0.127c-0.446,1.218,0.13,2.668,0.88,3.676    c1.347,1.807,3.473,3.512,5.769,3.512c0.426,0,0.857-0.059,1.291-0.186c2.527-0.743,3.85-2.518,4.042-5.424    C28.979,16.325,28.926,15.925,28.817,15.572z M12.028,19.123c-1.698,1.697-4.315,3.141-6.567,2.104    c-2.08-0.959-2.953-2.6-2.747-5.163c0.015-0.19,0.043-0.366,0.084-0.529c0-0.001,0.001-0.001,0.001-0.002L2.8,15.529    c0.293-1.14,1.266-1.607,3.411-1.607c0.439,0,0.928,0.02,1.47,0.057c3.973,0.274,5.173,1.31,5.48,2.131    C13.539,17.12,12.787,18.364,12.028,19.123z M24.68,21.45c-2.376,0.697-4.757-1.11-6.19-3.037    c-0.642-0.86-1.204-2.201-0.683-3.146c0.362-0.657,1.396-1.375,4.178-1.375c0.468,0,0.983,0.02,1.554,0.064    c3.566,0.275,4.73,0.978,4.611,2.785C27.981,19.307,26.878,20.804,24.68,21.45z"/><path d="M27.12,17.78c-0.204-0.086-0.438,0.011-0.523,0.215c-0.339,0.812-1.02,1.41-1.867,1.645    c-0.213,0.059-0.338,0.279-0.279,0.492c0.049,0.178,0.21,0.294,0.386,0.294c0.035,0,0.071-0.005,0.106-0.015    c1.086-0.3,1.958-1.068,2.393-2.107C27.42,18.099,27.325,17.865,27.12,17.78z"/><path d="M6.306,19.644c-0.847-0.238-1.525-0.84-1.861-1.652c-0.085-0.204-0.321-0.305-0.522-0.216    c-0.204,0.084-0.301,0.318-0.217,0.522c0.431,1.04,1.299,1.812,2.384,2.115c0.036,0.011,0.072,0.016,0.108,0.016    c0.175,0,0.335-0.116,0.385-0.292C6.643,19.925,6.519,19.704,6.306,19.644z"/></g></g></svg>